<?xml version="1.0" encoding="UTF-8"?>
<svg width="66px" height="66px" viewBox="0 0 66 66" version="1.1" xmlns="http://www.w3.org/2000/svg" xmlns:xlink="http://www.w3.org/1999/xlink">
    <title>financiacion</title>
    <defs>
        <filter id="filter-1">
            <feColorMatrix in="SourceGraphic" type="matrix" values="0 0 0 0 0.267369 0 0 0 0 0.308766 0 0 0 0 0.252124 0 0 0 1.000000 0"></feColorMatrix>
        </filter>
        <filter id="filter-2">
            <feColorMatrix in="SourceGraphic" type="matrix" values="0 0 0 0 0.341056 0 0 0 0 0.192952 0 0 0 0 0.150390 0 0 0 1.000000 0"></feColorMatrix>
        </filter>
        <polygon id="path-3" points="0 0 32.3795241 0 32.3795241 32 0 32"></polygon>
    </defs>
    <g id="UI" stroke="none" stroke-width="1" fill="none" fill-rule="evenodd">
        <g id="Desktop-HD" transform="translate(-1157.000000, -7392.000000)">
            <g id="financiacion" transform="translate(154.000000, 7392.000000)" filter="url(#filter-1)">
                <g transform="translate(1003.000000, 0.000000)">
                    <g id="Group-3" transform="translate(17.000000, 17.543000)" filter="url(#filter-2)">
                        <g transform="translate(0.000000, -0.000000)">
                            <mask id="mask-4" fill="white">
                                <use xlink:href="#path-3"></use>
                            </mask>
                            <g id="Clip-2"></g>
                            <path d="M20.8834564,17.8963784 C20.538905,18.3229263 20.3076167,18.8532124 20.1897983,19.4878577 L23.7802553,19.4878577 L23.4268003,20.3581398 L20.0945497,20.3581398 C20.085439,20.4034864 20.0810907,20.4668474 20.0810907,20.5486369 L20.0810907,20.8613007 C20.0810907,21.0971445 20.085439,21.2377397 20.0945497,21.2828792 L23.2363032,21.2828792 L22.8965142,22.1397022 L20.1628802,22.1397022 C20.2715878,22.8741515 20.5026692,23.4499913 20.8563312,23.8670144 C21.2644507,24.3836343 21.8173065,24.6420478 22.51552,24.6420478 C22.9687789,24.6420478 23.3452178,24.5697832 23.6444226,24.4244256 C23.9162951,24.2885928 24.2246106,24.0618598 24.569162,23.7444336 L24.569162,25.2541234 C23.952531,25.6533392 23.2681907,25.852533 22.51552,25.852533 C21.3004795,25.852533 20.3529633,25.4808565 19.6729713,24.7372964 C19.0836725,24.0937474 18.7163443,23.2278136 18.5716079,22.1397022 L17.5242877,22.1397022 L17.8916159,21.2828792 L18.5034845,21.2828792 C18.4943737,21.2197253 18.4875407,21.1516018 18.4829853,21.078923 C18.47843,21.0064513 18.4763593,20.9292171 18.4763593,20.8476346 C18.4763593,20.7842736 18.47843,20.7118019 18.4829853,20.6300124 C18.4875407,20.5486369 18.4943737,20.4579437 18.5034845,20.3581398 L17.5242877,20.3581398 L17.8777428,19.4878577 L18.598733,19.4878577 C18.825259,18.445093 19.2379338,17.6199504 19.8363433,17.0124302 C20.5343497,16.3142168 21.4276156,15.9653171 22.51552,15.9653171 C23.3042195,15.9653171 24.1113477,16.2463004 24.9362831,16.808474 L24.3107485,18.0460843 C23.7303534,17.4658962 23.095708,17.1758022 22.4066053,17.1758022 C21.7992921,17.1758022 21.2915758,17.4159943 20.8834564,17.8963784 L20.8834564,17.8963784 Z M21.6286729,30.7352646 C16.3978698,30.7352646 12.1423293,26.4797241 12.1423293,21.248921 C12.1423293,16.018325 16.3978698,11.7627845 21.6286729,11.7627845 C26.8590619,11.7627845 31.1146024,16.018325 31.1146024,21.248921 C31.1146024,26.4797241 26.8590619,30.7352646 21.6286729,30.7352646 L21.6286729,30.7352646 Z M6.32429809,27.3201892 C5.4175731,27.3201892 4.6798108,26.5824269 4.6798108,25.6757019 C4.6798108,24.7689769 5.4175731,24.0316287 6.32429809,24.0316287 L11.2432656,24.0316287 C11.5623483,25.2214076 12.0808319,26.3300182 12.7606168,27.3201892 L6.32429809,27.3201892 Z M6.32429809,19.4783329 L11.0241939,19.4783329 C10.9283242,20.0545867 10.8775939,20.6457491 10.8775939,21.248921 C10.8775939,21.7642986 10.9146581,22.2707725 10.9850592,22.7666863 L6.32429809,22.7666863 C5.4175731,22.7666863 4.6798108,22.0291311 4.6798108,21.1224061 C4.6798108,20.2156811 5.4175731,19.4783329 6.32429809,19.4783329 L6.32429809,19.4783329 Z M6.32429809,14.92483 L12.9401396,14.92483 C12.2222553,15.908375 11.6671218,17.0178138 11.314495,18.2133904 L6.32429809,18.2133904 C5.4175731,18.2133904 4.6798108,17.4758352 4.6798108,16.5691102 C4.6798108,15.6625923 5.4175731,14.92483 6.32429809,14.92483 L6.32429809,14.92483 Z M6.32429809,10.3715341 L21.8183418,10.3715341 C22.0728212,10.3715341 22.3169474,10.4305468 22.535605,10.5367697 C22.2364002,10.5115081 21.9340895,10.4980491 21.6286729,10.4980491 C18.6598164,10.4980491 15.968216,11.7077059 14.0205897,13.6600946 L6.32429809,13.6600946 C5.4175731,13.6600946 4.6798108,12.9223323 4.6798108,12.0158144 C4.6798108,11.1090894 5.4175731,10.3715341 6.32429809,10.3715341 L6.32429809,10.3715341 Z M2.90901561,4.55329585 C2.00229062,4.55329585 1.26473538,3.8157406 1.26473538,2.90901561 C1.26473538,2.00229062 2.00229062,1.26473538 2.90901561,1.26473538 L18.4030593,1.26473538 C19.3097843,1.26473538 20.0473396,2.00229062 20.0473396,2.90901561 C20.0473396,3.8157406 19.3097843,4.55329585 18.4030593,4.55329585 L2.90901561,4.55329585 Z M25.8657849,5.81803123 C26.7723029,5.81803123 27.5098581,6.55579353 27.5098581,7.46231146 C27.5098581,8.36903645 26.7723029,9.10659169 25.8657849,9.10659169 L21.8183418,9.10659169 L10.3715341,9.10659169 C9.46480915,9.10659169 8.7272539,8.36903645 8.7272539,7.46231146 C8.7272539,6.55579353 9.46480915,5.81803123 10.3715341,5.81803123 L25.8657849,5.81803123 Z M24.5002103,10.887947 C24.4231832,10.7046971 24.3289699,10.5318002 24.219227,10.3715341 L25.8657849,10.3715341 C27.469688,10.3715341 28.7745935,9.06642164 28.7745935,7.46231146 C28.7745935,5.85840834 27.469688,4.55329585 25.8657849,4.55329585 L20.8012527,4.55329585 C21.1232343,4.08512841 21.312282,3.51881353 21.312282,2.90901561 C21.312282,1.30490543 20.0073766,-0.000207062112 18.4030593,-0.000207062112 L2.90901561,-0.000207062112 C1.30490543,-0.000207062112 0,1.30490543 0,2.90901561 C0,4.5131258 1.30490543,5.81803123 2.90901561,5.81803123 L7.97334075,5.81803123 C7.65156623,6.28619866 7.46251852,6.85251354 7.46251852,7.46231146 C7.46251852,8.07231644 7.65156623,8.63863132 7.97334075,9.10659169 L6.32429809,9.10659169 C4.71998085,9.10659169 3.41507542,10.4117042 3.41507542,12.0158144 C3.41507542,12.9370337 3.84597167,13.7590703 4.51643879,14.2924623 C3.84597167,14.8258543 3.41507542,15.6478909 3.41507542,16.5691102 C3.41507542,17.4903296 3.84597167,18.3123661 4.51643879,18.8457581 C3.84597167,19.3791501 3.41507542,20.2011867 3.41507542,21.1224061 C3.41507542,22.0436254 3.84597167,22.865662 4.51643879,23.399054 C3.84597167,23.932446 3.41507542,24.7546896 3.41507542,25.6757019 C3.41507542,27.2798121 4.71998085,28.5849246 6.32429809,28.5849246 L13.7770847,28.5849246 C15.7404476,30.6849485 18.5335085,32 21.6286729,32 C27.5566541,32 32.3795449,27.1771093 32.3795449,21.248921 C32.3795449,16.315045 29.0385977,12.1475059 24.5002103,10.887947 L24.5002103,10.887947 Z" id="Fill-1" fill="#FFFFFF" mask="url(#mask-4)"></path>
                        </g>
                    </g>
                    <circle id="Oval-Copy-9" stroke="#3E5264" stroke-width="2" cx="33" cy="33" r="32"></circle>
                </g>
            </g>
        </g>
    </g>
</svg>