<?xml version="1.0" encoding="UTF-8"?>
<svg width="66px" height="66px" viewBox="0 0 66 66" version="1.1" xmlns="http://www.w3.org/2000/svg" xmlns:xlink="http://www.w3.org/1999/xlink">
    <title>garantia</title>
    <defs>
        <filter id="filter-1">
            <feColorMatrix in="SourceGraphic" type="matrix" values="0 0 0 0 0.267369 0 0 0 0 0.308766 0 0 0 0 0.252124 0 0 0 1.000000 0"></feColorMatrix>
        </filter>
    </defs>
    <g id="UI" stroke="none" stroke-width="1" fill="none" fill-rule="evenodd">
        <g id="Desktop-HD" transform="translate(-687.000000, -7392.000000)">
            <g id="garantia" transform="translate(154.000000, 7392.000000)" filter="url(#filter-1)">
                <g transform="translate(533.000000, 0.000000)">
                    <g id="garantia-copy" transform="translate(19.000000, 15.603883)" fill="#3E5264">
                        <path d="M19.8660531,15.6567108 L12.1367794,21.9441825 C11.9442392,22.1011837 11.7015396,22.1875568 11.4532168,22.1875568 C11.1347157,22.1875568 10.8337592,22.04855 10.6272734,21.8067502 L7.30865437,17.9210823 C7.12038786,17.7006508 7.02951609,17.420163 7.05200911,17.1313527 C7.07495198,16.8423175 7.2087854,16.579824 7.42921692,16.3915575 C7.62715542,16.2224101 7.87390376,16.1315383 8.13167368,16.1315383 C8.16068967,16.1315383 8.18970565,16.132663 8.21894657,16.1351372 C8.50775684,16.1578551 8.77047522,16.2916886 8.95874173,16.5121201 L11.5892995,19.5925381 L18.4964536,13.9735587 C18.7213837,13.7902407 19.0038959,13.705442 19.2922564,13.7358076 C19.5806168,13.7654984 19.8404111,13.9056298 20.0230543,14.130335 C20.2061474,14.3552652 20.2907212,14.6380023 20.2610304,14.9261378 C20.2313396,15.2142733 20.0912081,15.4738426 19.8660531,15.6567108 L19.8660531,15.6567108 Z M13.2495087,2.07857923 L24.8894174,8.28102728 L24.8894174,17.0416056 C24.8894174,23.7056102 20.90613,29.6959492 14.7416951,32.3019895 L13.2009238,32.9671079 L11.887107,32.3944358 C5.84750832,29.7465584 1.94497074,23.7890593 1.94497074,17.2163763 L1.94497074,8.27315473 L13.2495087,2.07857923 Z M0.504968118,6.84462354 C0.193439903,7.01557043 -7.99112312e-15,7.34239389 -7.99112312e-15,7.69755855 L-7.99112312e-15,17.2168261 C-7.99112312e-15,24.5612444 4.36004544,31.2187261 11.1077241,34.177007 L12.8102202,34.9192764 C13.0549441,35.0263431 13.3383561,35.0270179 13.5839798,34.920626 L15.501734,34.0926582 C22.3868449,31.1789134 26.8343882,24.4863427 26.8343882,17.0416056 L26.8343882,7.69710869 C26.8343882,7.3372205 26.6371245,7.00837266 26.3192982,6.83900028 L13.7000437,0.114714361 C13.5565383,0.0380131902 13.3995371,1.59822462e-14 13.2427608,1.59822462e-14 C13.0821607,1.59822462e-14 12.9213356,0.0400375613 12.775356,0.120112684 L0.504968118,6.84462354 Z" id="Fill-1"></path>
                    </g>
                    <circle id="Oval-Copy-7" stroke="#3E5264" stroke-width="2" cx="33" cy="33" r="32"></circle>
                </g>
            </g>
        </g>
    </g>
</svg>