<?xml version="1.0" encoding="UTF-8"?>
<svg width="31px" height="29px" viewBox="0 0 31 29" version="1.1" xmlns="http://www.w3.org/2000/svg" xmlns:xlink="http://www.w3.org/1999/xlink">
    <title>like</title>
    <g id="UI" stroke="none" stroke-width="1" fill="none" fill-rule="evenodd">
        <g id="Desktop-HD" transform="translate(-1254.000000, -80.000000)" fill="#000000">
            <g id="BTN" transform="translate(0.000000, 48.000000)">
                <g id="LIKE" transform="translate(1254.623290, 32.499900)">
                    <path d="M8.93955337,1.40301649 C4.92552321,1.40301649 1.40301649,5.14018473 1.40301649,9.40067812 C1.40301649,13.5643634 3.75681048,17.8552555 8.21045247,21.8094236 C10.2738221,23.6375541 12.5509178,25.2360575 14.9781363,26.5600374 C15.0679294,26.606337 15.2241319,26.6114814 15.3522741,26.5450719 C17.7551736,25.2327838 20.027125,23.6366187 22.0890915,21.8089559 C26.5436689,17.8557231 28.8983982,13.5648311 28.8983982,9.40067812 C28.8983982,5.14018473 25.3768268,1.40348416 21.3618613,1.40301649 C19.1825091,1.40675786 17.1116567,2.35098796 15.6796446,3.99392026 C15.5458903,4.14684906 15.3532094,4.23477143 15.1507074,4.23477143 C14.9477376,4.23477143 14.7550567,4.14684906 14.6217701,3.99392026 C13.189758,2.35098796 11.1189056,1.40675786 8.93955337,1.40301649 M15.1464983,28 C14.8593476,28 14.5731322,27.9303168 14.3187186,27.7979656 C11.7862738,26.4169297 9.42219104,24.7576289 7.27978487,22.8593476 C2.51701157,18.6306559 0,13.9768502 0,9.40067812 C0,4.39284462 4.17771542,0 8.94048872,0 C11.2685607,0.00420904946 13.4914065,0.912428388 15.1507074,2.51560856 C16.8100082,0.912428388 19.0323863,0.00420904946 21.3585876,0 L21.360926,0 C26.1236993,0 30.3014147,4.39284462 30.3014147,9.40067812 C30.3014147,13.9777856 27.7834678,18.6311236 23.0202268,22.8584123 C20.8792237,24.7566936 18.5202853,26.413656 16.0088858,27.7848708 C15.7292178,27.9289138 15.4369227,28 15.1464983,28" id="Fill-1"></path>
                </g>
            </g>
        </g>
    </g>
</svg>