<?xml version="1.0" encoding="UTF-8"?>
<svg width="28px" height="29px" viewBox="0 0 28 29" version="1.1" xmlns="http://www.w3.org/2000/svg" xmlns:xlink="http://www.w3.org/1999/xlink">
    <title>login</title>
    <g id="UI" stroke="none" stroke-width="1" fill="none" fill-rule="evenodd">
        <g id="Desktop-HD" transform="translate(-1193.000000, -81.000000)" fill="#000000">
            <g id="BTN" transform="translate(0.000000, 48.000000)">
                <g id="LOGIN-" transform="translate(1193.933405, 33.000000)">
                    <path d="M25.4018369,27.2273921 C25.2220211,27.4346865 24.9626621,27.5537602 24.6893228,27.5537602 L2.37914592,27.5537602 C2.1058066,27.5537602 1.8464476,27.4346865 1.66663179,27.2273921 C1.49356509,27.0273289 1.41836063,26.7761653 1.45548078,26.5201809 C2.31310097,20.5640834 7.50606592,16.0720626 13.5344754,16.0720626 C19.5624028,16.0720626 24.7553677,20.5640834 25.61347,26.5201809 C25.6505902,26.7761653 25.5753857,27.0273289 25.4018369,27.2273921 M6.95890521,7.88538134 C6.95890521,4.33486269 9.84752812,1.44623978 13.3985289,1.44623978 C16.9490475,1.44623978 19.8376704,4.33486269 19.8376704,7.88538134 C19.8376704,11.4359 16.9490475,14.3245229 13.3985289,14.3245229 C9.84752812,14.3245229 6.95890521,11.4359 6.95890521,7.88538134 M27.0452474,26.3138507 C26.2416202,20.7385963 22.0431861,16.3126205 16.7446456,15.0153434 C19.4221175,13.7537403 21.2839102,11.0362557 21.2839102,7.88538134 C21.2839102,3.53702041 17.7464077,0 13.3985289,0 C9.05016793,0 5.51266543,3.53702041 5.51266543,7.88538134 C5.51266543,11.0733759 7.4178453,13.8197852 10.1468998,15.061141 C4.93175912,16.4128931 0.817689038,20.8012667 0.0237034005,26.3138507 C-0.0727125847,26.9815314 0.127832664,27.6593357 0.573756595,28.1741971 C1.02787589,28.6991821 1.68591498,29 2.37914592,29 L24.6893228,29 C25.3820716,29 26.0405928,28.6991821 26.4951942,28.1746792 C26.940636,27.6598178 27.1411813,26.9815314 27.0452474,26.3138507" id="Fill-1"></path>
                </g>
            </g>
        </g>
    </g>
</svg>