<?xml version="1.0" encoding="UTF-8"?>
<svg width="207px" height="15px" viewBox="0 0 207 15" version="1.1" xmlns="http://www.w3.org/2000/svg" xmlns:xlink="http://www.w3.org/1999/xlink">
    <title>logos-pago</title>
    <defs>
        <filter id="filter-1">
            <feColorMatrix in="SourceGraphic" type="matrix" values="0 0 0 0 0.165209 0 0 0 0 0.165209 0 0 0 0 0.165209 0 0 0 1.000000 0"></feColorMatrix>
        </filter>
        <filter id="filter-2">
            <feColorMatrix in="SourceGraphic" type="matrix" values="0 0 0 0 0.165209 0 0 0 0 0.165209 0 0 0 0 0.165209 0 0 0 1.000000 0"></feColorMatrix>
        </filter>
    </defs>
    <g id="UI" stroke="none" stroke-width="1" fill="none" fill-rule="evenodd">
        <g id="Desktop-HD" transform="translate(-29.000000, -8692.000000)">
            <g id="FOOTER" transform="translate(0.000000, 8673.000000)">
                <g id="logos-pago" transform="translate(29.000000, 19.000000)">
                    <g id="Paypal-Copy" transform="translate(0.000000, 0.763290)" filter="url(#filter-1)">
                        <g>
                            <path d="M6.30438424,0.000597409935 L2.21791422,0.000597409935 C1.93841623,0.000421233919 1.70038151,0.20372671 1.65683871,0.47981217 L0.00408596118,10.9585992 C-0.0112910636,11.0570056 0.0171778544,11.1572118 0.0819969957,11.2328341 C0.146816137,11.3084565 0.241489391,11.3519161 0.341089776,11.3517707 L2.29200725,11.3517707 C2.57169881,11.3519005 2.80980419,11.1482811 2.85308275,10.8719582 L3.29883603,8.04566733 C3.34207955,7.76956803 3.57984881,7.5660193 3.859314,7.56585516 L5.15295454,7.56585516 C7.84480239,7.56585516 9.39836608,6.26325176 9.80408521,3.68194594 C9.9869277,2.55262464 9.81185303,1.66530077 9.28304385,1.04387529 C8.70225004,0.36150232 7.67211781,0.000597409935 6.30438424,0.000597409935 L6.30438424,0.000597409935 Z M6.77583107,3.82774192 C6.5523569,5.29406703 5.43199848,5.29406703 4.34868657,5.29406703 L3.73204129,5.29406703 L4.16464902,2.55561227 C4.1908134,2.39009793 4.33348571,2.26820298 4.50105531,2.26820298 L4.7836844,2.26820298 C5.52162715,2.26820298 6.21774319,2.26820298 6.57745293,2.68886023 C6.79196423,2.93982052 6.85769192,3.3126758 6.77583107,3.82774192 L6.77583107,3.82774192 Z M18.5195775,3.78053748 L16.5626848,3.78053748 C16.3951152,3.78054009 16.2524429,3.90243242 16.2262785,4.06794676 L16.1396374,4.6152792 L16.0028043,4.41690107 C15.5791595,3.80204836 14.6344732,3.59649994 13.6915796,3.59649994 C11.5291384,3.59649994 9.68219021,5.23431458 9.32248046,7.53179626 C9.1354553,8.67784824 9.4013537,9.77370817 10.0514603,10.537942 C10.6477898,11.2406308 11.5010548,11.5334178 12.5162489,11.5334178 C14.2586303,11.5334178 15.2248274,10.4130594 15.2248274,10.4130594 L15.1375889,10.9568067 C15.1218567,11.0551929 15.1499954,11.1555343 15.2145913,11.2313942 C15.2791871,11.3072541 15.3737616,11.3510243 15.4733976,11.3511728 L17.2360949,11.3511728 C17.5157864,11.351303 17.7538918,11.1476836 17.7971704,10.8713607 L18.8547887,4.1737086 C18.8705429,4.07553813 18.8424573,3.97539676 18.7779504,3.89973632 C18.7134436,3.82407587 18.619004,3.78050674 18.5195775,3.78053748 L18.5195775,3.78053748 Z M15.7918782,7.58915861 C15.6030604,8.70712694 14.7157366,9.45761771 13.5840252,9.45761771 C13.0157794,9.45761771 12.5616608,9.27537274 12.2700688,8.93000358 C11.9808669,8.58702452 11.8709224,8.09884701 11.9629412,7.55509972 C12.1392109,6.44669178 13.0414729,5.67170251 14.1558561,5.67170251 C14.7115539,5.67170251 15.1632824,5.85633758 15.4608496,6.20469436 C15.7590143,6.55663629 15.8773242,7.04780142 15.7918782,7.58915861 L15.7918782,7.58915861 Z M28.9415997,3.78053627 L26.9751466,3.78053627 C26.7868657,3.78083553 26.6108768,3.87408506 26.5048948,4.0297052 L23.7927312,8.02475397 L22.643094,4.18565909 C22.5706358,3.94523972 22.3492526,3.7806588 22.0981517,3.78053627 L20.1657575,3.78053627 C20.0557006,3.78024482 19.9522854,3.83315134 19.8881253,3.92257218 C19.8239653,4.01199302 19.8069691,4.12690577 19.8424967,4.23107095 L22.008523,10.5875365 L19.9721595,13.4622269 C19.8983819,13.5661322 19.8887809,13.7025314 19.9472758,13.8157472 C20.0057706,13.928963 20.1225743,13.9999995 20.2500084,13.9999995 L22.2140714,13.9999995 C22.4002118,14.0002553 22.5746244,13.9091409 22.6807381,13.7562089 L29.2212412,4.3153219 C29.2934958,4.21121578 29.301977,4.07560225 29.2432562,3.963305 C29.1845354,3.85100775 29.0683231,3.78053627 28.9415997,3.78053627 L28.9415997,3.78053627 Z" id="Shape" fill="#FFFFFF"></path>
                            <path d="M35.4522266,0.000597524495 L31.3651591,0.000597524495 C31.0858874,0.000715342055 30.8481887,0.203950286 30.8046811,0.47981217 L29.1519284,10.9585992 C29.1363712,11.0568362 29.1646105,11.1569591 29.2292064,11.2325891 C29.2938022,11.3082191 29.388276,11.3517704 29.4877371,11.3517704 L31.5850481,11.3517704 C31.7805185,11.3514838 31.9467485,11.2090734 31.9770242,11.0159616 L32.4460809,8.04566733 C32.4893244,7.76956803 32.7270937,7.5660193 33.0065589,7.56585516 L34.2996019,7.56585516 C36.9920473,7.56585516 38.5450134,6.26325176 38.9513301,3.68194594 C39.1347701,2.55262464 38.9585004,1.66530077 38.4296912,1.04387529 C37.8494949,0.36150232 36.8199602,0.000597524495 35.4522266,0.000597524495 L35.4522266,0.000597524495 Z M35.9236735,3.82774192 C35.7007968,5.29406703 34.5804384,5.29406703 33.496529,5.29406703 L32.8804812,5.29406703 L33.3136865,2.55561227 C33.3393467,2.39005963 33.4819659,2.26799583 33.6494952,2.26820272 L33.9321243,2.26820272 C34.6694696,2.26820272 35.3661831,2.26820272 35.7258929,2.68886023 C35.9404042,2.93982052 36.0055343,3.3126758 35.9236735,3.82774192 L35.9236735,3.82774192 Z M47.6668224,3.78053748 L45.7111247,3.78053748 C45.5435018,3.78007639 45.4007397,3.9022625 45.3753159,4.06794676 L45.2886749,4.6152792 L45.1512442,4.41690107 C44.7275994,3.80204836 43.7835107,3.59649994 42.840617,3.59649994 C40.6781759,3.59649994 38.8318252,5.23431458 38.4721154,7.53179626 C38.2856878,8.67784824 38.5503911,9.77370817 39.2004978,10.537942 C39.7980223,11.2406308 40.6500922,11.5334178 41.6652863,11.5334178 C43.4076678,11.5334178 44.3738649,10.4130594 44.3738649,10.4130594 L44.2866263,10.9568067 C44.2708611,11.0553991 44.2991519,11.1559437 44.3640163,11.231849 C44.4288808,11.3077542 44.5237854,11.3513743 44.6236301,11.3511728 L46.3857299,11.3511728 C46.665195,11.3510087 46.9029643,11.14746 46.9462078,10.8713607 L48.0044237,4.1737086 C48.0196047,4.07523624 47.9909827,3.97504807 47.9260744,3.89945582 C47.8611662,3.82386357 47.766458,3.78042112 47.6668224,3.78053748 L47.6668224,3.78053748 Z M44.9391231,7.58915861 C44.7515004,8.70712694 43.8629814,9.45761771 42.73127,9.45761771 C42.1642193,9.45761771 41.7089056,9.27537274 41.4173137,8.93000358 C41.1281118,8.58702452 41.0193624,8.09884701 41.1101861,7.55509972 C41.2876509,6.44669178 42.1887178,5.67170251 43.303101,5.67170251 C43.8587988,5.67170251 44.3105273,5.85633758 44.6080945,6.20469436 C44.9074543,6.55663629 45.0257641,7.04780142 44.9391231,7.58915861 L44.9391231,7.58915861 Z M49.9738644,0.288006807 L48.2966132,10.9585992 C48.281056,11.0568362 48.3092954,11.1569591 48.3738912,11.2325891 C48.438487,11.3082191 48.5329608,11.3517704 48.632422,11.3517704 L50.3186361,11.3517704 C50.5988751,11.3517704 50.8366898,11.148612 50.8797116,10.8719582 L52.5336594,0.393768642 C52.5491977,0.295475377 52.5209699,0.195302977 52.4563966,0.119584464 C52.3918233,0.0438659515 52.2973643,0.00017611153 52.1978506,-9.34046717e-14 L50.3096732,-9.34046717e-14 C50.1422295,0.000592901445 49.9999625,0.12260836 49.9738644,0.288006807 L49.9738644,0.288006807 Z" id="Shape" fill="#FFFFFF"></path>
                        </g>
                    </g>
                    <g id="VISA-Copy" transform="translate(69.000000, 0.492014)" filter="url(#filter-2)">
                        <g>
                            <path d="M16.0350415,11.7999845 L13.016823,11.7999845 L14.9031708,0.207147841 L17.9216994,0.207147841 L16.0350415,11.7999845 Z M10.4777115,0.207147841 L7.60027909,8.18078921 L7.25978758,6.46375688 L7.26009768,6.46437708 L6.24451508,1.25094969 C6.24451508,1.25094969 6.12171486,0.207147841 4.81277618,0.207147841 L0.0558182805,0.207147841 L-4.40680819e-15,0.403442127 C-4.40680819e-15,0.403442127 1.45468641,0.706101248 3.15714396,1.72850609 L5.77936274,11.8002946 L8.92410264,11.8002946 L13.7260253,0.207147841 L10.4777115,0.207147841 Z M34.2175362,11.7999845 L36.9889139,11.7999845 L34.5726025,0.206837739 L32.1463679,0.206837739 C31.025971,0.206837739 30.7530816,1.07078068 30.7530816,1.07078068 L26.2516474,11.7999845 L29.3979378,11.7999845 L30.0271339,10.0779905 L33.8640205,10.0779905 L34.2175362,11.7999845 Z M30.8963486,7.69920149 L32.4822079,3.36088069 L33.3743701,7.69920149 L30.8963486,7.69920149 Z M26.4876347,2.99496085 L26.9183658,0.50546554 C26.9183658,0.50546554 25.5892705,1.65255307e-14 24.2037367,1.65255307e-14 C22.7059462,1.65255307e-14 19.1490813,0.654624389 19.1490813,3.83781689 C19.1490813,6.83277773 23.3236685,6.86998992 23.3236685,8.44313513 C23.3236685,10.0162803 19.5791922,9.73439802 18.3434375,8.74238313 L17.8947205,11.3453756 C17.8947205,11.3453756 19.2424219,12 21.3014962,12 C23.3611908,12 26.4684084,10.9335607 26.4684084,8.03101016 C26.4684084,5.01682301 22.2562989,4.7361811 22.2562989,3.42569191 C22.256609,2.11489263 25.1960617,2.28327777 26.4876347,2.99496085 L26.4876347,2.99496085 Z" id="Shape" fill="#FFFFFF"></path>
                            <path d="M7.26009768,6.46406698 L6.24451508,1.25063958 C6.24451508,1.25063958 6.12171486,0.206837739 4.81277618,0.206837739 L0.0558182805,0.206837739 L5.50851024e-15,0.403132026 C5.50851024e-15,0.403132026 2.28637879,0.876967207 4.47941701,2.65229863 C6.57632375,4.34917435 7.26009768,6.46406698 7.26009768,6.46406698 Z" id="Path" fill="#FFFFFF"></path>
                        </g>
                    </g>
                    <g id="Master-card-Copy" transform="translate(122.000000, 0.000000)">
                        <path d="M66.2118889,12.1367037 L67.9413704,2.86914815 L70.1277778,2.86914815 L70.3564815,3.78251852 C70.7484074,3.32511111 71.499037,2.86914815 72.7715926,2.86914815 L72.0869259,5.2832963 C71.4662963,5.2832963 70.2914815,5.12103704 69.5413333,7.89437037 L68.757963,12.1367037 L66.2118889,12.1367037 L66.2118889,12.1367037 Z M32.6983704,0.513740741 L35.2184444,0.513740741 L34.7013333,2.9692963 L36.0576667,2.9692963 L35.606037,4.97225926 L34.3137407,4.97225926 L33.6025926,8.71962963 C33.4730741,9.43077778 33.5380741,10.0774074 34.9921481,9.85111111 L34.8303704,11.7245556 C34.281,12.0798889 33.5380741,12.1776296 32.955963,12.1776296 C32.3748148,12.1776296 30.4681481,11.8213333 30.9534815,9.30174074 L32.6983704,0.513740741 L32.6983704,0.513740741 Z M43.6188519,8.00944444 C43.9096667,6.52262963 44.5885556,2.84025926 40.1622963,2.84025926 C36.0908889,2.84025926 35.5742593,6.87844444 35.4774815,7.45959259 C35.3807037,8.0417037 35.3161852,12.1444074 39.6774444,12.1444074 C40.7439259,12.1771481 42.2947778,12.0476296 42.9091481,11.7240741 L43.2967407,9.81885185 C42.9091481,9.91466667 41.4545926,10.0446667 40.4526296,10.0446667 C39.4516296,10.0446667 37.8362593,10.1096667 38.1265926,8.00944444 L43.6188519,8.00944444 L43.6188519,8.00944444 Z M30.3082963,5.03725926 L30.8894444,3.16285185 C29.6939259,2.71074074 28.7574444,2.808 28.4016296,2.808 C28.0458148,2.808 25.0206667,2.77092593 24.557,5.005 C24.2016667,6.71762963 24.8285556,7.42588889 25.4294444,7.68637037 C26.3991481,8.1067037 26.9485185,8.4942963 27.4656296,8.75285185 C28.105037,9.07255556 27.9875556,10.1419259 27.1420741,10.1419259 C26.754,10.1419259 25.0745926,10.3354815 23.8145556,9.91514815 L23.4592222,11.8213333 C24.6224815,12.1448889 25.5584815,12.1448889 26.4318889,12.1448889 C27.0452963,12.1448889 30.0502222,12.3066667 30.4695926,9.52755556 C30.6747037,8.17266667 30.082,7.55637037 29.5971481,7.267 C29.1127778,6.94344444 28.3048519,6.49133333 27.7882222,6.26455556 C27.2711111,6.03874074 26.8835185,5.16677778 27.8204815,4.90822222 C28.4016296,4.84322222 29.5966667,4.84322222 30.3082963,5.03725926 L30.3082963,5.03725926 Z M13.9600741,12.1444074 L16.0598148,0.965851852 L11.9248519,0.965851852 L8.85492593,7.75088889 L8.37007407,0.965851852 L4.33188889,0.965851852 L2.16714815,12.1444074 L4.68674074,12.1444074 L6.23759259,4.06755556 L6.91648148,12.1444074 L9.30703704,12.1444074 L12.8290741,4.26159259 L11.3427407,12.1444074 L13.9600741,12.1444074 L13.9600741,12.1444074 Z M16.7377407,3.13107407 L16.3501481,5.13403704 C16.9645185,5.07 18.6121481,4.81144444 19.4841111,4.84322222 C20.357037,4.87548148 21.3257778,4.74644444 21.034963,6.13551852 C20.3888148,6.20051852 15.8657778,5.48937037 15.1555926,9.36577778 C14.8647778,11.2729259 16.5119259,12.2416667 17.8042222,12.1776296 C19.0965185,12.1126296 19.4518519,11.9508519 19.9044444,11.6272963 L20.2275185,12.1444074 L22.5853333,12.1444074 L23.5872963,7.10474074 C23.8458519,5.8447037 24.2652222,2.80751852 20.0334815,2.80751852 C19.2582963,2.84025926 18.3863333,2.80751852 16.7377407,3.13107407 L16.7377407,3.13107407 Z M57.576037,3.55044444 C56.9289259,3.16237037 56.4777778,3.09833333 55.6371111,3.09833333 C54.7974074,3.09833333 52.923,3.90096296 52.5686296,6.16777778 C52.1482963,8.84914815 53.9894815,10.1732222 56.5745556,9.30174074 L57.3174815,11.5632593 C56.4777778,11.9508519 55.6371111,12.1444074 54.248037,12.1444074 C51.6307037,12.1444074 48.788037,9.81885185 50.0803333,5.1012963 C51.0331852,1.62548148 54.0227037,0.352444444 55.7671111,0.416962963 C57.8341111,0.494 58.578,1.19214815 59.2241481,1.9032963 L57.576037,3.55044444 L57.576037,3.55044444 Z M79.0611852,3.93803704 C78.5758519,3.58318519 78.2864815,2.84025926 77.09,2.84025926 C75.7009259,2.84025926 73.5361852,2.5817037 72.3088889,6.78166667 C71.487963,9.5887037 73.1485926,12.1448889 74.957037,12.1448889 C75.7977037,12.1131111 76.6374074,11.7572963 77.1535556,11.401963 L77.4780741,12.1448889 L80.1912222,12.1448889 L82.3887037,0.385185185 L79.7386296,0.385185185 L79.0611852,3.93803704 L79.0611852,3.93803704 Z M59.3854444,3.13107407 L58.9968889,5.13403704 C59.6117407,5.07 61.2584074,4.81144444 62.1313333,4.84322222 C63.0037778,4.87548148 63.9734815,4.74644444 63.6821852,6.13551852 C63.036037,6.20051852 58.513,5.48937037 57.8028148,9.36577778 C57.5115185,11.2729259 59.1586667,12.2416667 60.450963,12.1776296 C61.7442222,12.1126296 62.0985926,11.9508519 62.5516667,11.6272963 L62.8752222,12.1444074 L65.2325556,12.1444074 L66.235,7.10474074 C66.4935556,5.8447037 66.9129259,2.80751852 62.6802222,2.80751852 C61.9055185,2.84025926 61.0330741,2.80751852 59.3854444,3.13107407 L59.3854444,3.13107407 Z" id="Shape" fill="#2A2A2A"></path>
                        <path d="M38.2878889,6.32955556 L41.4218519,6.32955556 C41.5836296,5.42485185 41.2928148,4.64918519 40.2913333,4.64918519 C39.2893704,4.64918519 38.5787037,5.1662963 38.2878889,6.32955556 Z M20.6155926,8.00944444 C20.1952593,7.94348148 19.2582963,7.68588889 18.4503704,8.23525926 C17.6424444,8.78462963 17.4166296,9.75288889 18.2568148,10.0774074 C19.0652222,10.387963 20.2588148,9.85159259 20.4215556,9.00996296 L20.6155926,8.00944444 L20.6155926,8.00944444 Z M78.1564815,7.71814815 C78.415037,6.87844444 78.273963,5.82977778 77.9947037,5.45759259 C77.22,4.42385185 75.4370741,5.24092593 74.8934815,7.267 C74.5381481,8.59107407 75.3138148,9.59255556 76.1857778,9.59255556 C77.1232222,9.59207407 77.7043704,8.84914815 78.1564815,7.71814815 L78.1564815,7.71814815 Z M63.2628148,8.00944444 C62.8424815,7.94348148 61.906,7.68588889 61.0980741,8.23525926 C60.2901481,8.78462963 60.0638519,9.75288889 60.9045185,10.0774074 C61.7134074,10.387963 62.9065185,9.85159259 63.0682963,9.00996296 L63.2628148,8.00944444 L63.2628148,8.00944444 Z" id="Shape" fill="#D5D2C9"></path>
                        <path d="M43.6910741,12.1444074 L45.4037037,2.9692963 L47.5684444,2.9692963 L47.7942593,3.874 C48.1828148,3.42140741 48.9257407,2.9692963 50.1848148,2.9692963 L49.5386667,5.39259259 C48.9257407,5.39259259 47.7292593,5.19903704 46.9863333,7.94396296 L46.2116296,12.1448889 L43.6910741,12.1448889 L43.6910741,12.1444074 Z" id="Path" fill="#2A2A2A"></path>
                    </g>
                </g>
            </g>
        </g>
    </g>
</svg>