<?xml version="1.0" encoding="UTF-8"?>
<svg width="304px" height="24px" viewBox="0 0 304 24" version="1.1" xmlns="http://www.w3.org/2000/svg" xmlns:xlink="http://www.w3.org/1999/xlink">
    <title>logo-liderlamp-sans</title>
    <g id="UI-DESKTOP" stroke="none" stroke-width="1" fill="none" fill-rule="evenodd">
        <g id="Desktiop-HOME" transform="translate(-568.000000, -36.000000)" fill="#000000">
            <g id="RECURSOS" transform="translate(-1.000000, 36.000000)">
                <g id="LOGO-DEFINITIVO" transform="translate(569.000000, 0.000000)">
                    <path d="M298.924778,8.25550979 C298.924778,6.82014596 298.457692,5.74376761 297.524099,5.02521859 C296.590505,4.30782571 295.337813,3.94884023 293.767758,3.94884023 L288.882434,3.94884023 L288.882434,12.5616013 L293.767758,12.5616013 C295.360358,12.5616013 296.619409,12.1685093 297.540863,11.3823253 C298.464051,10.5961413 298.924778,9.55444758 298.924778,8.25550979 L298.924778,8.25550979 Z M303.179999,8.16995448 C303.179999,9.50935761 302.929691,10.6897897 302.429077,11.7106727 C301.928463,12.7321338 301.246911,13.5830624 300.382109,14.2640364 C299.517884,14.9450105 298.505094,15.4612327 297.345473,15.8127032 C296.184695,16.1647518 294.944721,16.340487 293.625551,16.340487 L288.882434,16.340487 L288.882434,24 L284.729532,24 L284.729532,0.170532553 L294.125009,0.170532553 C295.508924,0.170532553 296.76335,0.357829323 297.887131,0.731844786 C299.010333,1.10643833 299.963581,1.64578365 300.746297,2.34872462 C301.52959,3.05282174 302.13079,3.89218874 302.550473,4.86798179 C302.970157,5.84435292 303.179999,6.9444324 303.179999,8.16995448 L303.179999,8.16995448 Z M254.227329,11.4383987 L246.975938,0.170532553 L242.516656,0.170532553 L242.516656,24 L246.669557,24 L246.669557,6.97853891 L254.125587,18.1446636 L254.260857,18.1446636 L261.7851,6.91032589 L261.7851,24 L265.938001,24 L265.938001,0.170532553 L261.47872,0.170532553 L254.227329,11.4383987 Z M209.189392,14.5363104 L217.393453,14.5363104 L213.274659,5.00440783 L209.189392,14.5363104 Z M205.206446,24 L200.917118,24 L211.402847,0 L215.283474,0 L225.768047,24 L221.342294,24 L218.925934,18.2469832 L207.65749,18.2469832 L205.206446,24 Z M185.905051,20.2211142 L173.377556,20.2211142 L173.377556,0.170532553 L169.224077,0.170532553 L169.224077,24 L185.905051,24 L185.905051,20.2211142 Z M142.248139,11.9829467 C143.749404,11.9829467 144.945444,11.6187586 145.833369,10.8892261 C146.721295,10.1602717 147.165258,9.17985404 147.165258,7.94912927 C147.165258,6.62706843 146.7317,5.62988655 145.867476,4.95758364 C145.002096,4.28528073 143.78351,3.94884023 142.213455,3.94884023 L136.100874,3.94884023 L136.100874,11.9829467 L142.248139,11.9829467 Z M145.734518,14.9785389 L152.169665,24 L147.233471,24 L141.359636,15.6936195 L136.100874,15.6936195 L136.100874,24 L131.947973,24 L131.947973,0.170532553 L142.568972,0.170532553 C143.930342,0.170532553 145.161067,0.346267794 146.26288,0.697738276 C147.362382,1.04978683 148.293663,1.54924489 149.053833,2.19553436 C149.814004,2.84240191 150.398439,3.63725703 150.807139,4.57894357 C151.215261,5.52120818 151.4199,6.57041694 151.4199,7.72772599 C151.4199,8.7266421 151.278272,9.61687983 150.994436,10.3995953 C150.710022,11.1828889 150.318665,11.8754245 149.819785,12.476624 C149.320327,13.0784016 148.724908,13.5888431 148.03295,14.0085266 C147.339837,14.4287882 146.573885,14.7519329 145.734518,14.9785389 L145.734518,14.9785389 Z M114.279644,20.2211142 L100.628947,20.2211142 L100.628947,13.8553364 L112.577787,13.8553364 L112.577787,10.0770287 L100.628947,10.0770287 L100.628947,3.94884023 L114.109112,3.94884023 L114.109112,0.170532553 L96.4748898,0.170532553 L96.4748898,24 L114.279644,24 L114.279644,20.2211142 Z M74.3484356,12.1187947 C74.3484356,10.933738 74.1489992,9.84637618 73.7501265,8.85497507 C73.3518318,7.86357396 72.7951442,7.00281812 72.0789074,6.27386372 C71.3615146,5.54490931 70.4909314,4.97492593 69.4677361,4.56449165 C68.4422285,4.15405737 67.3051521,3.94884023 66.0536166,3.94884023 L61.3434497,3.94884023 L61.3434497,20.2211142 L66.0536166,20.2211142 C67.3051521,20.2211142 68.4422285,20.0222559 69.4677361,19.6233832 C70.4909314,19.2245104 71.3615146,18.6666667 72.0789074,17.9486957 C72.7951442,17.2301467 73.3518318,16.3757497 73.7501265,15.3843486 C74.1489992,14.3929475 74.3484356,13.3044295 74.3484356,12.1187947 L74.3484356,12.1187947 Z M77.8203627,7.35313245 C78.4331238,8.80583857 78.7395043,10.3718477 78.7395043,12.0511598 C78.7395043,13.7310499 78.4331238,15.3022617 77.8203627,16.7659513 C77.2076017,18.2296409 76.3393309,19.4950502 75.2161283,20.5616013 C74.0929258,21.6287304 72.7523665,22.4680974 71.1990751,23.0808584 C69.6440494,23.6936195 67.9364116,24 66.0750054,24 L57.1905485,24 L57.1905485,0.170532553 L66.0750054,0.170532553 C67.9364116,0.170532553 69.6440494,0.471132307 71.1990751,1.07233182 C72.7523665,1.6741094 74.0929258,2.50769564 75.2161283,3.57424669 C76.3393309,4.6419539 77.2076017,5.90100441 77.8203627,7.35313245 L77.8203627,7.35313245 Z M33.973264,24 L38.1273213,24 L38.1273213,0.170532553 L33.973264,0.170532553 L33.973264,24 Z M4.15376834,20.2211142 L16.680685,20.2211142 L16.680685,24 L-0.000289038225,24 L-0.000289038225,0.170532553 L4.15376834,0.170532553 L4.15376834,20.2211142 Z" id="Fill-1"></path>
                </g>
            </g>
        </g>
    </g>
</svg>