<?xml version="1.0" encoding="UTF-8"?>
<svg width="529px" height="176px" viewBox="0 0 529 176" version="1.1" xmlns="http://www.w3.org/2000/svg" xmlns:xlink="http://www.w3.org/1999/xlink">
    <title>patron-figuras</title>
    <g id="UI" stroke="none" stroke-width="1" fill="none" fill-rule="evenodd" opacity="0.2">
        <g id="Desktop-HD" transform="translate(2.000000, -7535.000000)" stroke="#C8A795">
            <g id="RECURSOS" transform="translate(-381.000000, 72.000000)">
                <g id="patron-figuras" transform="translate(380.000000, 7464.000000)">
                    <polygon id="Stroke-11" points="103 77 135 77 135 2 103 2"></polygon>
                    <polygon id="Stroke-13" points="82 78 0 78 12.5623546 3 69.4376454 3"></polygon>
                    <path d="M155,30.1902331 L155,78 L215,78 L215,30.1902331 C215,13.5175163 201.56865,0 184.999362,0 C168.43135,0 155,13.5175163 155,30.1902331" id="Stroke-14"></path>
                    <path d="M236.001272,40.867298 L236.001272,78 L293,78 L293,52.7930824 C293,15.7207609 267.48065,0 236,0 C236,0 236.001272,18.2978506 236.001272,40.867298" id="Stroke-15"></path>
                    <path d="M350,39.5 C350,60.2103416 333.434204,77 313,77 L313,2 C333.434204,2 350,18.7896584 350,39.5 Z" id="Stroke-16"></path>
                    <path d="M447,39.5 C447,60.2103416 430.210053,77 409.499355,77 C388.788657,77 372,60.2103416 372,39.5 C372,18.7896584 388.788657,2 409.499355,2 C430.210053,2 447,18.7896584 447,39.5 Z" id="Stroke-17"></path>
                    <path d="M500.619423,77 L481.380577,77 C473.437653,77 467,70.5002494 467,62.480708 L467,16.5180018 C467,8.49975057 473.437653,2 481.380577,2 L500.619423,2 C508.561069,2 515,8.49975057 515,16.5180018 L515,62.480708 C515,70.5002494 508.561069,77 500.619423,77 Z" id="Stroke-18"></path>
                    <path d="M45.6194229,173 L26.3805771,173 C18.4376531,173 12,166.500249 12,158.480708 L12,112.518002 C12,104.499751 18.4376531,98 26.3805771,98 L45.6194229,98 C53.5610691,98 60,104.499751 60,112.518002 L60,158.480708 C60,166.500249 53.5610691,173 45.6194229,173 Z" id="Stroke-39"></path>
                    <polygon id="Stroke-40" points="183 173 215 173 215 98 183 98"></polygon>
                    <polygon id="Stroke-41" points="163 173 81 173 93.5623546 98 150.437645 98"></polygon>
                    <path d="M236,126.190233 L236,174 L296,174 L296,126.190233 C296,109.517516 282.56865,96 265.999362,96 C249.43135,96 236,109.517516 236,126.190233" id="Stroke-42"></path>
                    <path d="M317.001272,135.867298 L317.001272,173 L374,173 L374,147.793082 C374,110.720761 348.48065,95 317,95 C317,95 317.001272,113.297851 317.001272,135.867298" id="Stroke-43"></path>
                    <path d="M432,134.5 C432,155.210342 415.434204,172 395,172 L395,97 C415.434204,97 432,113.789658 432,134.5 Z" id="Stroke-44"></path>
                    <path d="M527,135.5 C527,156.210342 510.210053,173 489.499355,173 C468.788657,173 452,156.210342 452,135.5 C452,114.789658 468.788657,98 489.499355,98 C510.210053,98 527,114.789658 527,135.5 Z" id="Stroke-45"></path>
                </g>
            </g>
        </g>
    </g>
</svg>