<?xml version="1.0" encoding="UTF-8"?>
<svg width="21px" height="31px" viewBox="0 0 21 31" version="1.1" xmlns="http://www.w3.org/2000/svg" xmlns:xlink="http://www.w3.org/1999/xlink">
    <title>phone</title>
    <g id="UI" stroke="none" stroke-width="1" fill="none" fill-rule="evenodd">
        <g id="Desktop-HD" transform="translate(-1375.000000, -80.000000)" fill="#000000">
            <g id="BTN" transform="translate(0.000000, 48.000000)">
                <g id="PHONE" transform="translate(1375.000000, 32.000000)">
                    <path d="M13.9007937,3.93650794 C13.9007937,4.34393651 13.570619,4.67460317 13.1626984,4.67460317 L7.75,4.67460317 C7.34207937,4.67460317 7.01190476,4.34393651 7.01190476,3.93650794 C7.01190476,3.52907937 7.34207937,3.1984127 7.75,3.1984127 L13.1626984,3.1984127 C13.570619,3.1984127 13.9007937,3.52907937 13.9007937,3.93650794 L13.9007937,3.93650794 Z M4.91128571,29.5238095 C3.0852381,29.5238095 1.59920635,28.0377778 1.59920635,26.2117302 L1.59920635,4.78826984 C1.59920635,2.96222222 3.0852381,1.47619048 4.91128571,1.47619048 L15.8783968,1.47619048 C17.7044444,1.47619048 19.1904762,2.96222222 19.1904762,4.78826984 L19.1904762,26.2117302 C19.1904762,28.0377778 17.7044444,29.5238095 15.8783968,29.5238095 L4.91128571,29.5238095 Z M16.0014127,0 L15.8783968,0 L4.91128571,0 L4.78826984,0 C2.14785714,0 0,2.14785714 0,4.78826984 L0,26.2117302 C0,28.8521429 2.14785714,31 4.78826984,31 L4.91128571,31 L15.8783968,31 L16.0014127,31 C18.6418254,31 20.7896825,28.8521429 20.7896825,26.2117302 L20.7896825,4.78826984 C20.7896825,2.14785714 18.6418254,0 16.0014127,0 L16.0014127,0 Z" id="Fill-1"></path>
                </g>
            </g>
        </g>
    </g>
</svg>