<?xml version="1.0" encoding="UTF-8"?>
<svg width="29px" height="29px" viewBox="0 0 29 29" version="1.1" xmlns="http://www.w3.org/2000/svg" xmlns:xlink="http://www.w3.org/1999/xlink">
    <title>search</title>
    <g id="UI" stroke="none" stroke-width="1" fill="none" fill-rule="evenodd">
        <g id="Desktop-HD" transform="translate(-1132.000000, -81.000000)" fill="#000000">
            <g id="BTN" transform="translate(0.000000, 48.000000)">
                <g id="FIND" transform="translate(1131.994146, 33.000000)">
                    <path d="M1.46989255,12.0055923 C1.46989255,6.19657701 6.19608704,1.46989255 12.0055923,1.46989255 C17.8146077,1.46989255 22.5408022,6.19657701 22.5408022,12.0055923 C22.5408022,17.8146077 17.8146077,22.5412922 12.0055923,22.5412922 C6.19608704,22.5412922 1.46989255,17.8146077 1.46989255,12.0055923 M28.6148882,27.7452017 L20.9136311,20.0444347 C22.8372305,17.9145604 24.0106947,15.0948165 24.0106947,12.0055923 C24.0106947,5.38568629 18.6254984,0 12.0055923,0 C5.38568629,0 0,5.38568629 0,12.0055923 C0,18.6254984 5.38568629,24.0111847 12.0055923,24.0111847 C15.0085828,24.0111847 17.7548321,22.9004359 19.862168,21.0713996 L27.5756741,28.7844158 C27.7192336,28.9279753 27.9073799,29 28.0955261,29 C28.2836724,29 28.4713286,28.9279753 28.6148882,28.7844158 C28.9020072,28.4972967 28.9020072,28.0323207 28.6148882,27.7452017" id="Fill-1"></path>
                </g>
            </g>
        </g>
    </g>
</svg>