<?xml version="1.0" encoding="UTF-8"?>
<svg width="26px" height="32px" viewBox="0 0 26 32" version="1.1" xmlns="http://www.w3.org/2000/svg" xmlns:xlink="http://www.w3.org/1999/xlink">
    <title>shop</title>
    <g id="UI" stroke="none" stroke-width="1" fill="none" fill-rule="evenodd">
        <g id="Desktop-HD" transform="translate(-1318.000000, -79.000000)" fill="#000000">
            <g id="BTN" transform="translate(0.000000, 48.000000)">
                <g id="ShOP" transform="translate(1318.000000, 31.000000)">
                    <path d="M1.61368851,29.6296949 L3.05584196,9.47128814 L6.73898368,9.47128814 L6.73898368,11.8356949 C6.73898368,12.2707458 7.08733994,12.6238305 7.51656462,12.6238305 C7.94630768,12.6238305 8.29414556,12.2707458 8.29414556,11.8356949 L8.29414556,9.47128814 L16.8133223,9.47128814 L16.8133223,12.124678 C16.8133223,12.5597288 17.1611602,12.9128136 17.5909033,12.9128136 C18.0201279,12.9128136 18.3684842,12.5597288 18.3684842,12.124678 L18.3684842,9.47128814 L21.6436551,9.47128814 L23.5922729,29.6296949 L1.61368851,29.6296949 Z M8.29414556,6.0050678 C8.29414556,4.66523729 8.81512478,3.42681356 9.72282093,2.60715254 C10.4807032,1.92357627 11.4049877,1.57627119 12.4692368,1.57627119 C13.4360291,1.57627119 14.3032911,1.86262712 15.0466584,2.42745763 C16.1528969,3.26708475 16.8133223,4.6720678 16.8133223,6.18581356 L16.8133223,7.89501695 L8.29414556,7.89501695 L8.29414556,6.0050678 Z M23.1226141,8.60591525 C23.083735,8.20291525 22.7488568,7.89501695 22.3491802,7.89501695 L18.3684842,7.89501695 L18.3684842,6.18581356 C18.3684842,4.17869492 17.4753029,2.30188136 15.9787188,1.16591525 C14.9606061,0.391966102 13.7797199,0 12.4692368,0 C11.0120501,0 9.7404461,0.481288136 8.68863829,1.43020339 C7.44969266,2.54883051 6.73898368,4.216 6.73898368,6.0050678 L6.73898368,7.89501695 L2.33269169,7.89501695 C1.92523928,7.89501695 1.58673238,8.21394915 1.5571843,8.62588136 L0.00202242199,30.3610847 C-0.0135291968,30.5791356 0.0611185734,30.7945593 0.208340564,30.9542881 C0.355562556,31.1150678 0.561880698,31.2059661 0.777529812,31.2059661 L24.4496855,31.2059661 C24.6694817,31.2059661 24.8783918,31.1119153 25.0261322,30.9474576 C25.1733542,30.7824746 25.2448916,30.562322 25.2236378,30.3411186 L23.1226141,8.60591525 Z" id="Fill-1"></path>
                </g>
            </g>
        </g>
    </g>
</svg>